# xmcd CD database file generated by Grip 3.3.1
# 
# Track frame offsets:
#       150
#       13497
#       24357
#       37894
#       51085
#       67403
#       87959
#       95004
#       107788
#       121181
#       136186
#       153447
#       164283
#       181517
#       194733
# 
# Disc length: 2764 seconds
# 
# Revision: 2
# Processed by: cddbd v1.5.1PL2 Copyright (c) Steve Scherf et al.
# Submitted via: Grip 3.3.1
# 
DISCID=c80aca0f
DTITLE=Konnarock Critters - O Sister!
DYEAR=2002
DGENRE=Bluegrass
TTITLE0=Hell Broke Loose In Georgia
TTITLE1=I've Endured
TTITLE2=Pumpkin Rock
TTITLE3=Lost Indian
TTITLE4=Dixie Darling
TTITLE5=Poor Liza Jane
TTITLE6=Altamont
TTITLE7=Down In The Willow Garden
TTITLE8=Cornbread And Sweetpeas
TTITLE9=Rye Straw
TTITLE10=Michelle's Waltz
TTITLE11=Nancy Blevins
TTITLE12=Say Darlin' Say
TTITLE13=Swampcat Rag
TTITLE14=Sally Was A Poor Girl
EXTD=
EXTT0=
EXTT1=
EXTT2=
EXTT3=
EXTT4=
EXTT5=
EXTT6=
EXTT7=
EXTT8=
EXTT9=
EXTT10=
EXTT11=
EXTT12=
EXTT13=
EXTT14=
PLAYORDER=
